{
	"asset":{
		"generator":"Khronos glTF Blender I/O v3.6.28",
		"version":"2.0"
	},
	"scene":0,
	"scenes":[
		{
			"name":"Scene",
			"nodes":[
				4
			]
		}
	],
	"nodes":[
		{
			"mesh":0,
			"name":"Puzzle Piece 1__0"
		},
		{
			"children":[
				0
			],
			"name":"Puzzle Piece 1"
		},
		{
			"children":[
				1
			],
			"name":"RootNode"
		},
		{
			"children":[
				2
			],
			"name":"ebc3901e260e4c2290dbc54c22efa899.fbx",
			"rotation":[
				0.70710688829422,
				0,
				0,
				0.7071066498756409
			],
			"scale":[
				0.009999999776482582,
				0.010000000707805157,
				0.010000000707805157
			]
		},
		{
			"children":[
				3
			],
			"name":"Sketchfab_model",
			"rotation":[
				-0.70710688829422,
				0,
				0,
				0.7071066498756409
			]
		}
	],
	"materials":[
		{
			"doubleSided":true,
			"name":"Puzzle_Piece_1__0",
			"pbrMetallicRoughness":{
				"metallicFactor":0,
				"roughnessFactor":0.6000000238418579
			}
		}
	],
	"meshes":[
		{
			"name":"Puzzle Piece 1__0",
			"primitives":[
				{
					"attributes":{
						"POSITION":0,
						"NORMAL":1,
						"TEXCOORD_0":2
					},
					"indices":3,
					"material":0
				}
			]
		}
	],
	"accessors":[
		{
			"bufferView":0,
			"componentType":5126,
			"count":1262,
			"max":[
				99.98548889160156,
				99.98548126220703,
				8.561319351196289
			],
			"min":[
				-100,
				-100,
				-8.561249732971191
			],
			"type":"VEC3"
		},
		{
			"bufferView":1,
			"componentType":5126,
			"count":1262,
			"type":"VEC3"
		},
		{
			"bufferView":2,
			"componentType":5126,
			"count":1262,
			"type":"VEC2"
		},
		{
			"bufferView":3,
			"componentType":5123,
			"count":2145,
			"type":"SCALAR"
		}
	],
	"bufferViews":[
		{
			"buffer":0,
			"byteLength":15144,
			"byteOffset":0,
			"target":34962
		},
		{
			"buffer":0,
			"byteLength":15144,
			"byteOffset":15144,
			"target":34962
		},
		{
			"buffer":0,
			"byteLength":10096,
			"byteOffset":30288,
			"target":34962
		},
		{
			"buffer":0,
			"byteLength":4290,
			"byteOffset":40384,
			"target":34963
		}
	],
	"buffers":[
		{
			"byteLength":44676,
			"uri":"data:application/octet-stream;base64,"
		}
	]
}
